<svg width="200" height="200" viewBox="0 0 200 200" fill="none" xmlns="http://www.w3.org/2000/svg">
<path d="M197.424 81.0135C197.077 75.0827 195.007 69.291 191.202 63.6243C183.841 53.7914 173.91 48.6939 161.41 48.3468C142.438 48.0831 125.313 55.4998 110.049 70.5689C107.507 73.1802 105.063 76.166 102.702 79.5552C100.341 82.9439 98.7575 86.5272 97.9383 90.291C97.5633 92.4718 97.6046 94.4856 98.0629 96.3606C98.5629 98.3743 101.063 99.1243 102.66 97.791C103.522 97.0689 103.98 95.9439 103.716 94.8468C103.452 93.7635 103.438 92.5968 103.647 91.3606C104.369 88.1385 105.757 85.0968 107.841 82.2356C109.924 79.3743 112.077 76.8189 114.285 74.5689C128.216 60.7635 143.841 53.9581 161.16 54.1522C171.744 54.4439 180.16 58.7077 186.41 66.9439C192.438 76.6802 193.327 86.541 189.091 96.5272C185.938 104.333 181.41 111.513 175.522 118.055C169.632 124.597 163.799 129.958 158.035 134.124C154.188 136.888 150.188 139.402 146.022 141.638C140.257 144.888 134.257 147.527 128.007 149.555C126.452 150.041 124.702 150.499 122.785 150.916C121.73 151.152 120.744 151.347 119.772 151.513C118.966 151.652 118.188 151.791 117.452 151.888C116.605 151.986 115.577 152.069 114.355 152.138C113.132 152.208 112.021 152.208 111.007 152.138C108.855 152.027 107.077 151.555 105.647 150.736C104.647 150.166 103.799 149.444 103.147 148.527C102.188 147.013 102.022 145.194 102.605 143.083C103.022 142.013 103.521 140.874 104.063 139.708C108.952 131.986 115.091 125.666 122.48 120.749C125.48 118.347 131.785 114.944 141.397 110.541C151.007 106.138 162.438 103.069 175.647 101.319C177.73 101.097 179.841 100.93 181.994 100.833H182.049C183.632 100.777 184.882 99.4439 184.813 97.8606V97.7635C184.744 96.1802 183.397 94.9439 181.813 95.0272C179.507 95.0968 177.244 95.2493 175.022 95.5135C157.966 98.0273 143.952 102.18 132.98 108.014L131.952 108.499C125.605 111.791 121.285 114.291 119.007 116.013C118.174 116.583 117.369 117.166 116.563 117.763C120.007 112.236 122.452 107.902 123.869 104.791C124.591 102.972 124.855 101.638 124.702 100.791C124.48 99.6243 123.952 98.7772 123.147 98.2493C122.327 97.666 121.174 97.4993 119.674 97.7635C118.174 98.1243 116.049 99.2493 113.272 101.138C112.549 101.652 111.772 102.222 110.994 102.791C110.257 103.333 109.494 103.902 108.716 104.499C105.272 107.124 101.382 110.236 97.0075 113.874C89.4242 120.249 82.1187 125.958 75.0771 130.958C70.2575 134.374 66.4658 136.277 63.7021 136.666C63.7437 136.361 63.7854 135.972 63.8546 135.527C63.9521 135.124 64.105 134.486 64.1883 134.097C66.1883 128.416 70.355 120.638 76.6883 110.791C79.5908 106.208 82.5908 101.499 85.7158 96.6802C92.5771 86.2356 98.4104 76.7635 103.202 68.2635C106.23 62.7356 108.063 58.3052 108.716 54.9856C109.105 52.5831 108.869 50.7356 107.98 49.4718C107.257 48.3331 106.105 47.5831 104.507 47.2218C102.813 46.8606 100.632 47.3052 97.9658 48.5414C94.8687 50.0689 91.1325 52.7081 86.73 56.4581C78.1325 64.0135 68.355 73.9302 57.3825 86.2218C46.4104 98.5135 36.0076 110.583 26.1881 122.43C35.5353 108.527 43.4937 95.1522 50.0629 82.291C53.4521 75.4577 55.6883 69.416 56.7992 64.1802C57.5771 60.3052 57.5908 57.0135 56.8546 54.3189C55.9796 51.4164 54.5908 49.3189 52.7021 48.0135C49.9938 46.0968 46.5771 45.4439 42.4521 46.0552C36.327 47.1939 29.8826 49.7635 23.1187 53.7498C18.6742 56.3748 13.0076 60.041 9.54925 62.3189C7.96592 63.3606 7.78537 65.6106 9.18812 66.8885C10.1881 67.791 11.6604 67.9022 12.7715 67.1385C14.6603 65.8468 17.6326 63.8327 20.0353 62.291C23.8826 59.8327 27.9659 57.5689 32.2853 55.4856C37.1048 53.1106 41.4798 51.8468 45.4242 51.6802C48.2854 51.5552 50.2296 52.9439 51.2296 55.8747C51.7158 57.8606 51.6742 60.2356 51.0771 62.9993C50.0354 67.8468 47.9521 73.416 44.8271 79.6939C36.5631 95.4439 26.827 111.527 15.6326 127.93C9.35479 137.277 4.29925 145.236 0.465916 151.777C-0.436859 153.333 0.00758531 155.319 1.4937 156.347C2.95203 157.347 4.92425 157.097 6.06312 155.749C8.47979 152.916 12.6742 147.944 16.5076 143.263C24.7437 133.166 34.6326 121.333 46.2021 107.763C57.7575 94.1939 68.855 81.9993 79.5075 71.1939C86.6325 63.9993 92.7021 58.7218 97.7158 55.3747C99.1462 54.4302 100.452 53.7356 101.619 53.2772C102.132 53.0831 102.605 52.9718 103.035 52.9302C103.035 53.0968 103.035 53.3052 103.007 53.5689C102.994 53.8331 102.952 54.0689 102.882 54.3052C102.66 55.3189 102.285 56.4856 101.757 57.8189C97.4658 67.1939 90.4796 79.0968 80.8129 93.5135C77.6604 98.3606 74.6325 103.097 71.73 107.722C67.0771 115.041 63.4521 121.416 60.8408 126.819C58.98 130.763 57.98 133.888 57.8133 136.194C57.7437 138.208 58.1883 139.722 59.1325 140.736C60.0771 141.944 61.6325 142.541 63.8271 142.541C66.9521 142.319 71.1187 140.513 76.3271 137.124C83.9104 131.916 91.9379 125.749 100.396 118.624C104.244 115.43 107.799 112.555 111.091 109.986C113.049 108.486 114.91 107.166 116.702 106.027C115.077 108.93 113.077 112.305 110.702 116.18C106.563 122.694 102.827 129.208 99.4658 135.708C99.2158 136.194 98.9937 136.666 98.7717 137.138C98.7717 137.138 98.7575 137.166 98.7437 137.18C98.7021 137.25 98.6883 137.319 98.6467 137.388C98.5217 137.652 98.4242 137.902 98.2992 138.152C98.0908 138.624 97.8825 139.097 97.6883 139.555C95.7717 144.444 95.9379 148.499 98.2158 151.736C99.7437 154.055 101.91 155.736 104.716 156.791C106.438 157.444 108.41 157.861 110.619 158.041C111.785 158.069 113.091 158.055 114.522 157.986C115.952 157.916 117.16 157.819 118.132 157.694C119.924 157.472 121.869 157.111 123.966 156.638C126.063 156.166 127.966 155.666 129.66 155.152C136.271 153.041 142.647 150.25 148.799 146.805C153.16 144.43 157.382 141.777 161.452 138.847C167.605 134.416 173.813 128.694 180.077 121.652C186.341 114.611 191.147 106.944 194.507 98.6106C196.757 92.8189 197.702 86.9577 197.369 81.0273H197.424V81.0135Z" fill="white"/>
</svg>
