<svg width="150" height="150" viewBox="0 0 150 150" fill="none" xmlns="http://www.w3.org/2000/svg">
<path d="M149.021 59.0524C148.76 54.6045 147.208 50.2608 144.354 46.0108C138.833 38.6358 131.385 34.8129 122.01 34.5524C107.781 34.3545 94.9375 39.917 83.4896 51.2191C81.5833 53.1774 79.75 55.417 77.9792 57.9587C76.2083 60.5004 75.0208 63.1879 74.4063 66.0108C74.125 67.6462 74.1562 69.1566 74.5 70.5629C74.875 72.0733 76.75 72.6358 77.9479 71.6358C78.5938 71.0941 78.9375 70.2504 78.7396 69.4274C78.5417 68.6149 78.5313 67.7399 78.6875 66.8129C79.2292 64.3962 80.2708 62.1149 81.8333 59.9691C83.3958 57.8233 85.0104 55.9066 86.6667 54.2191C97.1146 43.8649 108.833 38.7608 121.823 38.9066C129.76 39.1254 136.073 42.3233 140.76 48.5004C145.281 55.8024 145.948 63.1983 142.771 70.6879C140.406 76.542 137.01 81.9274 132.594 86.8337C128.177 91.7399 123.802 95.7608 119.479 98.8858C116.594 100.959 113.594 102.844 110.469 104.521C106.146 106.959 101.646 108.938 96.9583 110.459C95.7917 110.823 94.4792 111.167 93.0417 111.48C92.25 111.657 91.5104 111.802 90.7813 111.927C90.1771 112.032 89.5938 112.136 89.0417 112.209C88.4063 112.282 87.6354 112.344 86.7188 112.396C85.8021 112.448 84.9687 112.448 84.2083 112.396C82.5937 112.313 81.2604 111.959 80.1875 111.344C79.4375 110.917 78.8021 110.375 78.3125 109.688C77.5938 108.552 77.4688 107.188 77.9063 105.605C78.2188 104.802 78.5937 103.948 79 103.073C82.6667 97.2816 87.2708 92.542 92.8125 88.8545C95.0625 87.0524 99.7917 84.5004 107 81.1983C114.208 77.8962 122.781 75.5941 132.688 74.2816C134.25 74.1149 135.833 73.9899 137.448 73.917H137.49C138.677 73.8754 139.615 72.8754 139.563 71.6879V71.6149C139.51 70.4274 138.5 69.5004 137.313 69.5629C135.583 69.6149 133.885 69.7295 132.219 69.9274C119.427 71.8129 108.917 74.9274 100.688 79.3024L99.9167 79.667C95.1563 82.1358 91.9167 84.0108 90.2083 85.3024C89.5833 85.7295 88.9792 86.167 88.375 86.6149C90.9583 82.4691 92.7917 79.2191 93.8542 76.8858C94.3958 75.5212 94.5937 74.5212 94.4792 73.8858C94.3125 73.0108 93.9167 72.3754 93.3125 71.9795C92.6979 71.542 91.8333 71.417 90.7083 71.6149C89.5833 71.8858 87.9896 72.7295 85.9063 74.1462C85.3646 74.5316 84.7813 74.9587 84.1979 75.3858C83.6458 75.792 83.0729 76.2191 82.4896 76.667C79.9063 78.6358 76.9896 80.9691 73.7083 83.6983C68.0208 88.4795 62.5417 92.7608 57.2604 96.5108C53.6458 99.0733 50.8021 100.5 48.7292 100.792C48.7604 100.563 48.7917 100.271 48.8437 99.9379C48.9167 99.6358 49.0312 99.1566 49.0937 98.8649C50.5937 94.6045 53.7187 88.7712 58.4687 81.3858C60.6458 77.9483 62.8958 74.417 65.2396 70.8024C70.3854 62.9691 74.7604 55.8649 78.3542 49.4899C80.625 45.3441 82 42.0212 82.4896 39.5316C82.7813 37.7295 82.6042 36.3441 81.9375 35.3962C81.3958 34.542 80.5313 33.9795 79.3333 33.7087C78.0625 33.4379 76.4271 33.7712 74.4271 34.6983C72.1042 35.8441 69.3021 37.8233 66 40.6358C59.5521 46.3024 52.2187 53.7399 43.9896 62.9587C35.7604 72.1774 27.9583 81.2295 20.5937 90.1149C27.6042 79.6879 33.5729 69.6566 38.5 60.0108C41.0417 54.8858 42.7187 50.3545 43.5521 46.4274C44.1354 43.5212 44.1458 41.0524 43.5937 39.0316C42.9375 36.8545 41.8958 35.2816 40.4792 34.3024C38.4479 32.8649 35.8854 32.3754 32.7917 32.8337C28.1979 33.6879 23.3646 35.6149 18.2917 38.6045C14.9583 40.5733 10.7083 43.3233 8.11458 45.0316C6.92708 45.8129 6.79166 47.5004 7.84374 48.4587C8.59374 49.1358 9.69791 49.2191 10.5312 48.6462C11.9479 47.6774 14.1771 46.167 15.9792 45.0108C18.8646 43.167 21.9271 41.4691 25.1667 39.9066C28.7812 38.1254 32.0625 37.1774 35.0208 37.0524C37.1667 36.9587 38.625 38.0004 39.375 40.1983C39.7396 41.6879 39.7083 43.4691 39.2604 45.542C38.4792 49.1774 36.9167 53.3545 34.5729 58.0629C28.375 69.8754 21.0729 81.9379 12.6771 94.2399C7.96874 101.25 4.17708 107.219 1.30208 112.125C0.624992 113.292 0.958325 114.782 2.07291 115.552C3.16666 116.302 4.64583 116.115 5.49999 115.105C7.31249 112.98 10.4583 109.25 13.3333 105.74C19.5104 98.167 26.9271 89.292 35.6042 79.1149C44.2708 68.9379 52.5937 59.792 60.5833 51.6879C65.9271 46.292 70.4792 42.3337 74.2396 39.8233C75.3125 39.1149 76.2917 38.5941 77.1667 38.2504C77.5521 38.1045 77.9062 38.0212 78.2292 37.9899C78.2292 38.1149 78.2292 38.2712 78.2083 38.4691C78.1979 38.667 78.1667 38.8441 78.1146 39.0212C77.9479 39.7816 77.6667 40.6566 77.2708 41.6566C74.0521 48.6879 68.8125 57.6149 61.5625 68.4274C59.1979 72.0629 56.9271 75.6149 54.75 79.0837C51.2604 84.5733 48.5417 89.3545 46.5833 93.4066C45.1875 96.3649 44.4375 98.7087 44.3125 100.438C44.2604 101.948 44.5937 103.084 45.3021 103.844C46.0104 104.75 47.1771 105.198 48.8229 105.198C51.1667 105.032 54.2917 103.677 58.1979 101.136C63.8854 97.2295 69.9062 92.6045 76.25 87.2608C79.1354 84.8649 81.8021 82.7087 84.2708 80.7816C85.7396 79.6566 87.1354 78.667 88.4792 77.8129C87.2604 79.9899 85.7604 82.5212 83.9792 85.4274C80.875 90.3129 78.0729 95.1983 75.5521 100.073C75.3646 100.438 75.1979 100.792 75.0312 101.146C75.0312 101.146 75.0208 101.167 75.0104 101.177C74.9792 101.23 74.9688 101.282 74.9375 101.334C74.8438 101.532 74.7708 101.719 74.6771 101.907C74.5208 102.261 74.3646 102.615 74.2188 102.959C72.7813 106.625 72.9062 109.667 74.6146 112.094C75.7604 113.834 77.3854 115.094 79.4896 115.886C80.7812 116.375 82.2604 116.688 83.9167 116.823C84.7917 116.844 85.7708 116.834 86.8438 116.782C87.9167 116.73 88.8229 116.657 89.5521 116.563C90.8958 116.396 92.3542 116.125 93.9271 115.771C95.5 115.417 96.9271 115.042 98.1979 114.657C103.156 113.073 107.938 110.98 112.552 108.396C115.823 106.615 118.99 104.625 122.042 102.427C126.656 99.1045 131.313 94.8129 136.01 89.5316C140.708 84.2504 144.313 78.5004 146.833 72.2504C148.521 67.9066 149.229 63.5108 148.979 59.0629H149.021V59.0524Z" fill="#64748B"/>
</svg>
